<?xml version="1.0" encoding="iso-8859-1"?>
<!-- Uploaded to: SVG Repo, www.svgrepo.com, Generator: SVG Repo Mixer Tools -->
<svg height="800px" width="800px" version="1.1" id="Layer_1" xmlns="http://www.w3.org/2000/svg" xmlns:xlink="http://www.w3.org/1999/xlink" 
	 viewBox="0 0 512 512" xml:space="preserve">
<path style="fill:#FF8766;" d="M247.899,8.246C114.739,12.523,8.1,121.8,8.1,255.999s106.64,243.477,239.8,247.754V8.246H247.899z"
	/>
<path style="fill:#FF734D;" d="M264.1,8.246v495.508c133.16-4.277,239.799-113.554,239.799-247.754
	C503.9,121.8,397.26,12.523,264.1,8.246z"/>
<path id="SVGCleanerId_0" style="fill:#FF734D;" d="M8.1,256.001c0,74.98,33.29,142.182,85.894,187.639
	c52.603-45.458,85.893-112.66,85.893-187.639S146.598,113.818,93.994,68.36C41.39,113.818,8.1,181.02,8.1,256.001z"/>
<g>
	<path id="SVGCleanerId_0_1_" style="fill:#FF734D;" d="M8.1,256.001c0,74.98,33.29,142.182,85.894,187.639
		c52.603-45.458,85.893-112.66,85.893-187.639S146.598,113.818,93.994,68.36C41.39,113.818,8.1,181.02,8.1,256.001z"/>
</g>
<g>
	<path style="opacity:0.15;fill:#293133;enable-background:new    ;" d="M133.459,443.628c-0.004,0.004-0.009,0.008-0.013,0.012
		c-0.624-0.54-1.233-1.097-1.852-1.644c-0.7-0.617-1.4-1.232-2.092-1.857c-0.818-0.738-1.627-1.484-2.434-2.231
		c-0.709-0.657-1.416-1.314-2.117-1.98c-0.783-0.742-1.561-1.489-2.334-2.242c-0.711-0.691-1.417-1.388-2.119-2.088
		c-0.75-0.747-1.497-1.496-2.238-2.253c-0.713-0.728-1.417-1.463-2.12-2.201c-0.714-0.747-1.429-1.494-2.133-2.251
		c-0.727-0.78-1.441-1.57-2.157-2.36c-0.664-0.732-1.333-1.459-1.988-2.199c-0.793-0.894-1.569-1.803-2.349-2.709
		c-0.562-0.652-1.132-1.297-1.687-1.956c-1.287-1.527-2.556-3.072-3.808-4.63c-0.505-0.63-0.996-1.272-1.496-1.907
		c-0.78-0.991-1.562-1.981-2.326-2.984c-0.549-0.719-1.083-1.448-1.623-2.173c-0.698-0.936-1.395-1.872-2.08-2.818
		c-0.546-0.755-1.082-1.517-1.62-2.279c-0.661-0.935-1.319-1.873-1.967-2.817c-0.53-0.773-1.054-1.551-1.576-2.331
		c-0.638-0.954-1.271-1.912-1.897-2.874c-0.507-0.78-1.01-1.562-1.508-2.348c-0.624-0.985-1.24-1.978-1.851-2.972
		c-0.476-0.775-0.953-1.55-1.42-2.331c-0.624-1.042-1.236-2.093-1.845-3.145c-0.432-0.745-0.868-1.487-1.293-2.238
		c-0.66-1.168-1.303-2.347-1.944-3.525c-0.352-0.647-0.713-1.288-1.06-1.94c-0.959-1.8-1.899-3.612-2.813-5.438
		c-0.077-0.153-0.151-0.309-0.227-0.462c-0.867-1.74-1.715-3.49-2.542-5.252c-0.306-0.65-0.596-1.309-0.896-1.962
		c-0.574-1.251-1.146-2.502-1.699-3.764c-0.333-0.758-0.652-1.523-0.977-2.284c-0.5-1.171-0.996-2.344-1.479-3.523
		c-0.329-0.806-0.649-1.616-0.97-2.426c-0.457-1.152-0.907-2.308-1.347-3.469c-0.313-0.827-0.622-1.658-0.927-2.49
		c-0.427-1.164-0.844-2.334-1.254-3.506c-0.289-0.829-0.578-1.659-0.86-2.493c-0.406-1.204-0.798-2.414-1.187-3.626
		c-0.259-0.809-0.521-1.616-0.772-2.428c-0.399-1.292-0.78-2.592-1.158-3.892c-0.215-0.739-0.437-1.474-0.646-2.215
		c-0.441-1.57-0.859-3.15-1.269-4.733c-0.124-0.478-0.258-0.954-0.38-1.433c-0.524-2.07-1.021-4.152-1.492-6.243
		c-0.111-0.495-0.21-0.995-0.318-1.492c-0.349-1.595-0.691-3.194-1.009-4.8c-0.15-0.76-0.286-1.525-0.43-2.288
		c-0.255-1.353-0.507-2.708-0.74-4.067c-0.145-0.848-0.278-1.7-0.414-2.551c-0.206-1.288-0.407-2.578-0.594-3.873
		c-0.127-0.887-0.247-1.777-0.366-2.667c-0.17-1.273-0.329-2.55-0.48-3.83c-0.106-0.901-0.207-1.803-0.303-2.706
		c-0.137-1.292-0.261-2.588-0.378-3.886c-0.08-0.889-0.162-1.778-0.232-2.67c-0.107-1.348-0.197-2.701-0.282-4.056
		c-0.053-0.846-0.112-1.689-0.158-2.536c-0.079-1.496-0.135-2.997-0.187-4.499c-0.025-0.71-0.06-1.416-0.079-2.127
		c-0.058-2.217-0.093-4.44-0.093-6.671c0-2.231,0.035-4.454,0.093-6.671c0.018-0.71,0.054-1.415,0.079-2.123
		c0.053-1.503,0.108-3.007,0.188-4.504c0.044-0.847,0.104-1.688,0.158-2.533c0.085-1.355,0.175-2.71,0.282-4.06
		c0.071-0.891,0.152-1.779,0.232-2.667c0.118-1.299,0.241-2.596,0.378-3.89c0.096-0.902,0.198-1.803,0.302-2.701
		c0.15-1.282,0.311-2.56,0.481-3.834c0.118-0.889,0.238-1.777,0.365-2.661c0.187-1.297,0.389-2.589,0.595-3.88
		c0.136-0.849,0.268-1.698,0.413-2.543c0.233-1.364,0.486-2.721,0.741-4.077c0.143-0.759,0.278-1.522,0.428-2.279
		c0.32-1.611,0.662-3.215,1.012-4.815c0.108-0.491,0.204-0.986,0.315-1.475c0.471-2.092,0.969-4.173,1.493-6.245
		c0.12-0.475,0.254-0.946,0.377-1.42c0.411-1.587,0.831-3.171,1.272-4.746c0.207-0.739,0.429-1.472,0.644-2.208
		c0.379-1.304,0.76-2.606,1.161-3.901c0.251-0.81,0.512-1.615,0.77-2.421c0.389-1.214,0.782-2.426,1.189-3.632
		c0.281-0.832,0.569-1.66,0.858-2.488c0.41-1.174,0.827-2.344,1.255-3.509c0.305-0.832,0.612-1.66,0.926-2.487
		c0.441-1.163,0.892-2.32,1.349-3.474c0.32-0.808,0.639-1.616,0.968-2.419c0.483-1.183,0.981-2.358,1.482-3.532
		c0.324-0.759,0.644-1.522,0.975-2.278c0.554-1.264,1.128-2.518,1.702-3.77c0.299-0.651,0.589-1.307,0.893-1.956
		c0.827-1.763,1.676-3.514,2.543-5.254c0.077-0.153,0.15-0.309,0.227-0.461c0.916-1.826,1.854-3.639,2.814-5.438
		c0.347-0.65,0.706-1.291,1.058-1.938c0.643-1.18,1.285-2.36,1.946-3.528c0.423-0.75,0.86-1.49,1.291-2.235
		c0.61-1.053,1.222-2.104,1.846-3.147c0.468-0.781,0.944-1.555,1.42-2.33c0.611-0.996,1.227-1.987,1.851-2.973
		c0.499-0.786,1.002-1.569,1.509-2.35c0.624-0.961,1.256-1.918,1.894-2.871c0.523-0.781,1.047-1.56,1.578-2.333
		c0.648-0.944,1.306-1.88,1.966-2.815c0.539-0.763,1.076-1.526,1.622-2.282c0.683-0.944,1.379-1.877,2.075-2.811
		c0.542-0.728,1.079-1.459,1.629-2.181c0.761-0.999,1.54-1.985,2.317-2.972c0.503-0.639,0.997-1.285,1.506-1.919
		c1.251-1.557,2.519-3.101,3.806-4.627c0.559-0.663,1.134-1.312,1.7-1.97c0.775-0.901,1.549-1.805,2.337-2.695
		c0.658-0.742,1.33-1.472,1.996-2.207c0.714-0.786,1.426-1.575,2.15-2.352c0.706-0.758,1.423-1.507,2.14-2.256
		c0.702-0.734,1.404-1.469,2.114-2.195c0.742-0.758,1.492-1.509,2.243-2.258c0.701-0.698,1.404-1.392,2.114-2.082
		c0.775-0.754,1.554-1.503,2.338-2.248c0.699-0.662,1.404-1.319,2.11-1.973c0.81-0.75,1.62-1.498,2.44-2.237
		c0.69-0.622,1.388-1.236,2.084-1.85c0.621-0.548,1.231-1.107,1.858-1.648c0.004,0.004,0.009,0.008,0.013,0.012
		c32.036-27.679,71.235-47.287,114.44-55.685V8.246C114.739,12.523,8.1,121.8,8.1,255.999s106.64,243.477,239.8,247.754v-4.441
		C204.695,490.915,165.497,471.307,133.459,443.628z"/>
	<path style="fill:#293133;" d="M88.697,74.489c52.805,45.632,83.091,111.791,83.091,181.511s-30.285,135.88-83.091,181.511
		c-0.265,0.229-0.504,0.475-0.732,0.73c3.989,3.68,8.099,7.228,12.324,10.643c55.745-48.68,87.699-118.896,87.699-192.883
		c0-73.986-31.955-144.202-87.699-192.883c-4.224,3.415-8.335,6.963-12.324,10.643C88.193,74.013,88.433,74.26,88.697,74.489z"/>
</g>
<path style="fill:#FF8766;" d="M503.9,256.001c0,74.98-33.29,142.182-85.894,187.639c-52.603-45.458-85.893-112.66-85.893-187.639
	s33.29-142.182,85.893-187.639C470.609,113.818,503.9,181.02,503.9,256.001z"/>
<g>
	<path style="fill:#293133;" d="M423.302,74.489c-52.804,45.632-83.09,111.791-83.09,181.51c0,69.721,30.285,135.88,83.091,181.511
		c0.265,0.229,0.504,0.475,0.732,0.73c-3.989,3.68-8.099,7.228-12.324,10.643c-55.744-48.681-87.699-118.897-87.699-192.884
		c0-73.986,31.955-144.202,87.699-192.883c4.224,3.415,8.335,6.963,12.324,10.643C423.807,74.013,423.568,74.26,423.302,74.489z"/>
	<path style="fill:#293133;" d="M503.9,264.1H8.1c-4.475,0-8.1-3.627-8.1-8.1s3.626-8.1,8.1-8.1H503.9c4.475,0,8.1,3.627,8.1,8.1
		S508.373,264.1,503.9,264.1z"/>
	<path style="fill:#293133;" d="M255.999,512c-4.475,0-8.1-3.627-8.1-8.1V8.1c0-4.474,3.626-8.1,8.1-8.1c4.475,0,8.1,3.627,8.1,8.1
		V503.9C264.1,508.373,260.474,512,255.999,512z"/>
</g>
</svg>